<?xml version="1.0" encoding="UTF-8"?>
<svg width="76px" height="80px" viewBox="0 0 76 80" version="1.1" xmlns="http://www.w3.org/2000/svg" xmlns:xlink="http://www.w3.org/1999/xlink">
    <title>icons / social / twitch</title>
    <g id="icons-/-social-/-twitch" stroke="none" stroke-width="1" fill="none" fill-rule="evenodd">
        <polygon id="Path" fill="#FFFFFF" points="5.16846076 7.10542736e-15 -2.77111667e-13 13.9133333 -2.77111667e-13 69.5600002 18.9422171 69.5600002 18.9422171 80 29.2838937 80 39.6152677 69.5600002 55.1166874 69.5600002 75.7894737 48.6992001 75.7894737 7.10542736e-15"></polygon>
        <path d="M5.16846076,0 L0,13.9133333 L0,69.5600002 L18.9422171,69.5600002 L18.9422171,80 L29.2838937,80 L39.6152677,69.5600002 L55.1166874,69.5600002 L75.7894737,48.6992001 L75.7894737,0 L5.16846076,0 Z M12.0542823,6.95226667 L68.9007464,6.95226667 L68.9007464,45.2138667 L56.8398597,57.3896 L37.8947368,57.3896 L27.5662687,67.8152002 L27.5662687,57.3896 L12.0542823,57.3896 L12.0542823,6.95226667 Z M31.0041074,41.7401867 L37.8946841,41.7401867 L37.8946841,20.8729867 L31.0041074,20.8729867 L31.0041074,41.7401867 Z M49.9505512,41.7401867 L56.839807,41.7401867 L56.839807,20.8729867 L49.9505512,20.8729867 L49.9505512,41.7401867 Z" id="Shape" fill="#9147FF" fill-rule="nonzero"></path>
    </g>
</svg>