<?xml version="1.0" encoding="UTF-8"?>
<svg width="100px" height="80px" viewBox="0 0 100 80" version="1.1" xmlns="http://www.w3.org/2000/svg" xmlns:xlink="http://www.w3.org/1999/xlink">
    <title>icons / social / twitter</title>
    <g id="icons-/-social-/-twitter" stroke="none" stroke-width="1" fill="none" fill-rule="evenodd">
        <path d="M31.3376561,80 C68.9412491,80 89.5088281,49.2192107 89.5088281,22.5262489 C89.5088281,21.6519737 89.5088281,20.7816366 89.4490386,19.9152377 C93.4502752,17.0557704 96.9042099,13.5152256 99.6491228,9.45937853 C95.9177776,11.0929412 91.959516,12.1642311 87.9064702,12.6374871 C92.1744181,10.1130452 95.3686888,6.14253577 96.8948211,1.46487978 C92.8815822,3.8177644 88.4909964,5.47596011 83.9125333,6.3679098 C77.575179,-0.289994298 67.5051831,-1.91953974 59.349221,2.39302899 C51.1932588,6.70559771 46.9796786,15.8877657 49.071214,24.7907005 C32.6326791,23.9764807 17.316928,16.3052028 6.93557895,3.68601145 C1.50917702,12.9156986 4.28087802,24.7231981 13.2652912,30.6507075 C10.0117123,30.5554333 6.82907146,29.688269 3.98596491,28.122398 C3.98596491,28.2050997 3.98596491,28.2917396 3.98596491,28.3783795 C3.98862807,37.9938041 10.8488059,46.2755621 20.3882105,48.1795321 C17.3782872,48.9905604 14.220251,49.1091162 11.1567158,48.5260916 C13.8350767,56.754608 21.5105568,62.3915607 30.2574596,62.5538771 C23.0178912,68.1753564 14.0746793,71.2270329 4.86686316,71.2178659 C3.2402051,71.2147805 1.61512919,71.1174719 0,70.9264408 C9.34962259,76.8544859 20.2284268,79.9988852 31.3376561,79.9842473" id="Path" fill="#1DA1F2" fill-rule="nonzero"></path>
    </g>
</svg>