<?xml version="1.0" standalone="no"?>
<!DOCTYPE svg PUBLIC "-//W3C//DTD SVG 20010904//EN"
 "http://www.w3.org/TR/2001/REC-SVG-20010904/DTD/svg10.dtd">
<svg version="1.0" xmlns="http://www.w3.org/2000/svg"
 width="512.000000pt" height="512.000000pt" viewBox="0 0 512.000000 512.000000"
 preserveAspectRatio="xMidYMid meet">
<metadata>
Created by potrace 1.11, written by Peter Selinger 2001-2013
</metadata>
<g transform="translate(0.000000,512.000000) scale(0.100000,-0.100000)"
fill="#000000" stroke="none">
<path d="M0 2560 l0 -2560 2560 0 2560 0 0 2560 0 2560 -2560 0 -2560 0 0
-2560z m2662 2225 c25 -9 61 -31 81 -49 l36 -33 57 28 c108 55 231 29 309 -64
37 -45 38 -45 71 -31 48 20 150 17 199 -5 46 -21 121 -98 130 -134 6 -22 10
-23 88 -23 66 1 90 -3 122 -21 70 -37 124 -107 139 -179 7 -30 10 -31 56 -33
63 -1 107 -19 158 -65 50 -45 82 -112 82 -170 0 -43 1 -44 37 -51 131 -24 226
-155 209 -286 -6 -46 -6 -47 23 -54 42 -9 115 -77 142 -132 26 -54 30 -142 9
-194 -13 -30 -12 -33 6 -43 10 -6 38 -30 61 -53 43 -43 73 -115 73 -174 0 -35
-28 -119 -46 -140 -12 -14 -9 -21 25 -57 91 -95 93 -249 4 -344 l-25 -26 25
-34 c76 -102 58 -256 -40 -338 l-40 -34 19 -44 c15 -34 19 -61 16 -112 -5 -85
-42 -150 -113 -199 -32 -21 -49 -39 -46 -50 11 -54 3 -149 -17 -187 -27 -53
-100 -117 -150 -132 l-39 -12 -5 -63 c-11 -129 -100 -227 -223 -244 -25 -3
-45 -11 -45 -18 0 -38 -36 -121 -67 -156 -54 -60 -105 -83 -185 -83 l-66 -1
-22 -52 c-24 -58 -80 -114 -136 -138 -41 -17 -140 -20 -178 -5 -22 8 -27 5
-46 -24 -30 -49 -91 -102 -136 -117 -59 -20 -142 -16 -191 9 l-42 22 -46 -45
c-47 -45 -117 -75 -175 -75 -44 0 -118 26 -156 55 l-35 27 -22 -20 c-91 -85
-250 -79 -342 13 l-42 41 -39 -20 c-29 -16 -58 -21 -115 -21 -67 0 -81 4 -125
30 -29 18 -61 50 -79 77 -20 32 -35 45 -45 41 -33 -13 -133 -15 -175 -3 -60
17 -127 77 -153 139 l-22 49 -73 4 c-61 3 -83 9 -123 33 -59 37 -110 109 -120
170 -6 42 -8 45 -43 50 -140 23 -231 120 -234 251 -1 54 -2 54 -38 64 -120 33
-207 173 -180 291 14 58 14 56 -11 63 -39 9 -98 66 -125 119 -31 62 -35 151
-9 211 l16 39 -39 36 c-46 43 -79 105 -87 164 -7 52 16 141 47 181 l21 27 -25
27 c-87 91 -87 240 -1 340 l35 41 -22 43 c-33 64 -37 152 -9 216 20 47 96 132
119 132 5 0 3 17 -5 38 -44 124 21 277 140 327 29 12 30 14 30 86 1 64 5 82
32 129 36 63 106 117 165 126 34 6 39 10 39 33 0 53 31 132 68 173 46 52 122
88 183 88 45 0 47 1 52 36 20 122 152 216 283 199 51 -6 52 -6 62 23 16 45 82
113 132 135 64 29 152 27 216 -5 l50 -25 27 49 c30 53 94 101 162 119 54 15
147 -2 194 -36 29 -20 38 -23 46 -12 17 22 78 64 110 75 44 15 115 14 167 -3z"/>
<path d="M2360 4419 c-346 -40 -701 -188 -964 -402 -849 -693 -933 -1946 -183
-2733 783 -822 2101 -767 2808 117 641 802 513 1963 -287 2616 -374 305 -893
457 -1374 402z m499 -364 c246 -36 410 -103 569 -232 65 -52 86 -78 114 -140
20 -44 22 -71 29 -343 10 -401 17 -461 60 -497 20 -16 29 -8 71 62 45 73 120
149 170 170 76 31 160 13 188 -41 24 -44 18 -157 -12 -231 -38 -90 -79 -146
-197 -263 -216 -216 -352 -242 -896 -174 -284 36 -476 36 -760 0 -410 -52
-556 -46 -713 30 -63 30 -96 56 -183 143 -163 162 -223 269 -224 402 0 75 16
114 57 135 36 18 99 18 146 -1 50 -21 125 -97 170 -170 19 -33 40 -63 46 -67
27 -18 62 51 71 140 4 31 10 192 14 357 8 340 12 359 94 443 133 138 353 237
612 276 127 20 442 20 574 1z m-995 -2030 c236 -48 373 -98 504 -186 34 -22
62 -47 62 -55 0 -11 16 -13 73 -12 39 1 91 -2 115 -6 38 -7 42 -6 42 12 0 41
192 148 350 196 81 24 321 76 353 76 11 0 21 -24 35 -87 35 -152 46 -243 45
-403 0 -164 -22 -307 -62 -408 l-19 -47 -53 2 c-129 6 -338 87 -490 191 -72
48 -159 127 -159 143 0 4 -37 7 -82 6 -46 -1 -98 2 -115 6 -27 7 -33 6 -33 -7
0 -8 -19 -34 -42 -56 -147 -141 -435 -275 -607 -283 l-53 -2 -19 47 c-77 195
-84 521 -17 811 14 63 24 87 35 87 9 0 70 -11 137 -25z"/>
</g>
</svg>
